<svg style="text-rendering: geometricPrecision; cursor: auto;" xmlns:xlink="http://www.w3.org/1999/xlink" xmlns="http://www.w3.org/2000/svg" id="workspace"><desc>Created with Snap</desc><defs><linearGradient x1="0" y1="0.5" x2="1" y2="0.5" id="Sjddhlzm31c"><stop offset="0%" stop-color="#26250d"></stop><stop offset="100%" stop-color="#26250d"></stop></linearGradient><linearGradient x1="0" y1="0.5" x2="1" y2="0.5" id="Sjddhlzm31l"><stop offset="0%" stop-color="#706c14"></stop><stop offset="100%" stop-color="#706c14"></stop></linearGradient><linearGradient x1="0" y1="0.5" x2="1" y2="0.5" id="Sjddhlzm31u"><stop offset="0%" stop-color="#b1b1b1"></stop><stop offset="100%" stop-color="#b1b1b1"></stop></linearGradient><linearGradient x1="0" y1="0.5" x2="1" y2="0.5" id="Sjddhlzm321"><stop offset="0%" stop-color="#ffffff"></stop><stop offset="100%" stop-color="#ffffff"></stop></linearGradient><linearGradient x1="0" y1="0.5" x2="1" y2="0.5" id="Sjddhlzm324"><stop offset="0%" stop-color="#26250d"></stop><stop offset="100%" stop-color="#26250d"></stop></linearGradient><linearGradient x1="0" y1="0.5" x2="1" y2="0.5" id="Sjddhlzm327"><stop offset="0%" stop-color="#706c14"></stop><stop offset="100%" stop-color="#706c14"></stop></linearGradient><linearGradient x1="0" y1="0.5" x2="1" y2="0.5" id="Sjddhlzm32a"><stop offset="0%" stop-color="#b1b1b1"></stop><stop offset="100%" stop-color="#b1b1b1"></stop></linearGradient><linearGradient x1="0" y1="0.5" x2="1" y2="0.5" id="Sjddhlzm32d"><stop offset="0%" stop-color="#ffffff"></stop><stop offset="100%" stop-color="#ffffff"></stop></linearGradient><linearGradient x1="0" y1="0.5" x2="1" y2="0.5" id="Sjddhlzm32g"><stop offset="0%" stop-color="#26250d"></stop><stop offset="100%" stop-color="#26250d"></stop></linearGradient><linearGradient x1="0" y1="0.5" x2="1" y2="0.5" id="Sjddhlzm32j"><stop offset="0%" stop-color="#706c14"></stop><stop offset="100%" stop-color="#706c14"></stop></linearGradient><linearGradient x1="0" y1="0.5" x2="1" y2="0.5" id="Sjddhlzm32m"><stop offset="0%" stop-color="#b1b1b1"></stop><stop offset="100%" stop-color="#b1b1b1"></stop></linearGradient><linearGradient x1="0" y1="0.5" x2="1" y2="0.5" id="Sjddhlzm32p"><stop offset="0%" stop-color="#ffffff"></stop><stop offset="100%" stop-color="#ffffff"></stop></linearGradient><linearGradient x1="0" y1="0.5" x2="1" y2="0.5" id="Sjddhlzm334"><stop offset="0%" stop-color="#26250d"></stop><stop offset="100%" stop-color="#26250d"></stop></linearGradient><linearGradient x1="0" y1="0.5" x2="1" y2="0.5" id="Sjddhlzm337"><stop offset="0%" stop-color="#26250d"></stop><stop offset="100%" stop-color="#26250d"></stop></linearGradient><linearGradient x1="0" y1="0.5" x2="1" y2="0.5" id="Sjddhlzm33a"><stop offset="0%" stop-color="#26250d"></stop><stop offset="100%" stop-color="#26250d"></stop></linearGradient><linearGradient x1="0" y1="0.5" x2="1" y2="0.5" id="Sjddhlzm33d"><stop offset="0%" stop-color="#26250d"></stop><stop offset="100%" stop-color="#26250d"></stop></linearGradient><linearGradient x1="0" y1="0.5" x2="1" y2="0.5" id="Sjddhlzm33g"><stop offset="0%" stop-color="#26250d"></stop><stop offset="100%" stop-color="#26250d"></stop></linearGradient><linearGradient x1="0" y1="0.5" x2="1" y2="0.5" id="Sjddhlzm33j"><stop offset="0%" stop-color="#706c14"></stop><stop offset="100%" stop-color="#706c14"></stop></linearGradient><linearGradient x1="0" y1="0.5" x2="1" y2="0.5" id="Sjddhlzm33m"><stop offset="0%" stop-color="#26250d"></stop><stop offset="100%" stop-color="#26250d"></stop></linearGradient><linearGradient x1="0" y1="0.5" x2="1" y2="0.5" id="Sjddhlzm33p"><stop offset="0%" stop-color="#26250d"></stop><stop offset="100%" stop-color="#26250d"></stop></linearGradient><linearGradient x1="0" y1="0.5" x2="1" y2="0.5" id="Sjddhlzm33s"><stop offset="0%" stop-color="#26250d"></stop><stop offset="100%" stop-color="#26250d"></stop></linearGradient><linearGradient x1="0" y1="0.5" x2="1" y2="0.5" id="Sjddhlzm33v"><stop offset="0%" stop-color="#26250d"></stop><stop offset="100%" stop-color="#26250d"></stop></linearGradient><linearGradient x1="0" y1="0.5" x2="1" y2="0.5" id="Sjddhlzm33y"><stop offset="0%" stop-color="#26250d"></stop><stop offset="100%" stop-color="#26250d"></stop></linearGradient><linearGradient x1="0" y1="0.5" x2="1" y2="0.5" id="Sjddhlzm345"><stop offset="0%" stop-color="#26250d"></stop><stop offset="100%" stop-color="#26250d"></stop></linearGradient><linearGradient x1="0" y1="0.5" x2="1" y2="0.5" id="Sjddhlzm348"><stop offset="0%" stop-color="#26250d"></stop><stop offset="100%" stop-color="#26250d"></stop></linearGradient><linearGradient x1="0" y1="0.5" x2="1" y2="0.5" id="Sjddhlzm34b"><stop offset="0%" stop-color="#706c14"></stop><stop offset="100%" stop-color="#706c14"></stop></linearGradient><linearGradient x1="0" y1="0.5" x2="1" y2="0.5" id="Sjddhlzm34e"><stop offset="0%" stop-color="#b1b1b1"></stop><stop offset="100%" stop-color="#b1b1b1"></stop></linearGradient><linearGradient x1="0" y1="0.5" x2="1" y2="0.5" id="Sjddhlzm34h"><stop offset="0%" stop-color="#ffffff"></stop><stop offset="100%" stop-color="#ffffff"></stop></linearGradient><linearGradient x1="0" y1="0.5" x2="1" y2="0.5" id="Sjddhlzm34u"><stop offset="0%" stop-color="#26250d"></stop><stop offset="100%" stop-color="#26250d"></stop></linearGradient><linearGradient x1="0" y1="0.5" x2="1" y2="0.5" id="Sjddhlzm34x"><stop offset="0%" stop-color="#706c14"></stop><stop offset="100%" stop-color="#706c14"></stop></linearGradient><linearGradient x1="0" y1="0.5" x2="1" y2="0.5" id="Sjddhlzm350"><stop offset="0%" stop-color="#b1b1b1"></stop><stop offset="100%" stop-color="#b1b1b1"></stop></linearGradient><linearGradient x1="0" y1="0.5" x2="1" y2="0.5" id="Sjddhlzm353"><stop offset="0%" stop-color="#ffffff"></stop><stop offset="100%" stop-color="#ffffff"></stop></linearGradient><linearGradient x1="0" y1="0.5" x2="1" y2="0.5" id="Sjddhlzm356"><stop offset="0%" stop-color="#26250d"></stop><stop offset="100%" stop-color="#26250d"></stop></linearGradient><linearGradient x1="0" y1="0.5" x2="1" y2="0.5" id="Sjddhlzm359"><stop offset="0%" stop-color="#26250d"></stop><stop offset="100%" stop-color="#26250d"></stop></linearGradient><linearGradient x1="0" y1="0.5" x2="1" y2="0.5" id="Sjddhlzm35c"><stop offset="0%" stop-color="#26250d"></stop><stop offset="100%" stop-color="#26250d"></stop></linearGradient><linearGradient x1="0" y1="0.5" x2="1" y2="0.5" id="Sjddhlzm35f"><stop offset="0%" stop-color="#b1b1b1"></stop><stop offset="100%" stop-color="#b1b1b1"></stop></linearGradient><linearGradient x1="0" y1="0.5" x2="1" y2="0.5" id="Sjddhlzm35i"><stop offset="0%" stop-color="#ffffff"></stop><stop offset="100%" stop-color="#ffffff"></stop></linearGradient><linearGradient x1="0" y1="0.5" x2="1" y2="0.5" id="Sjddhlzm35l"><stop offset="0%" stop-color="#706c14"></stop><stop offset="100%" stop-color="#706c14"></stop></linearGradient><linearGradient x1="0" y1="0.5" x2="1" y2="0.5" id="Sjddhlzm35o"><stop offset="0%" stop-color="#706c14"></stop><stop offset="100%" stop-color="#706c14"></stop></linearGradient><linearGradient x1="0" y1="0.5" x2="1" y2="0.5" id="Sjddhlzm35r"><stop offset="0%" stop-color="#ffffff"></stop><stop offset="100%" stop-color="#ffffff"></stop></linearGradient><linearGradient x1="0" y1="0.5" x2="1" y2="0.5" id="Sjddhlzm35u"><stop offset="0%" stop-color="#ffffff"></stop><stop offset="100%" stop-color="#ffffff"></stop></linearGradient><linearGradient x1="0" y1="0.5" x2="1" y2="0.5" id="Sjddhlzm35x"><stop offset="0%" stop-color="#ffffff"></stop><stop offset="100%" stop-color="#ffffff"></stop></linearGradient><linearGradient x1="0" y1="0.5" x2="1" y2="0.5" id="Sjddhlzm360"><stop offset="0%" stop-color="#ffffff"></stop><stop offset="100%" stop-color="#ffffff"></stop></linearGradient><linearGradient x1="0" y1="0.5" x2="1" y2="0.5" id="Sjddhlzm363"><stop offset="0%" stop-color="#ffffff"></stop><stop offset="100%" stop-color="#ffffff"></stop></linearGradient><linearGradient x1="0" y1="0.5" x2="1" y2="0.5" id="Sjddhlzm366"><stop offset="0%" stop-color="#26250d"></stop><stop offset="100%" stop-color="#26250d"></stop></linearGradient><linearGradient x1="0" y1="0.5" x2="1" y2="0.5" id="Sjddhlzm369"><stop offset="0%" stop-color="#706c14"></stop><stop offset="100%" stop-color="#706c14"></stop></linearGradient><linearGradient x1="0" y1="0.5" x2="1" y2="0.5" id="Sjddhlzm36c"><stop offset="0%" stop-color="#26250d"></stop><stop offset="100%" stop-color="#26250d"></stop></linearGradient><linearGradient x1="0" y1="0.5" x2="1" y2="0.5" id="Sjddhlzm36f"><stop offset="0%" stop-color="#ffffff"></stop><stop offset="100%" stop-color="#ffffff"></stop></linearGradient><linearGradient x1="0" y1="0.5" x2="1" y2="0.5" id="Sjddhlzm36i"><stop offset="0%" stop-color="#b1b1b1"></stop><stop offset="100%" stop-color="#b1b1b1"></stop></linearGradient><linearGradient x1="0" y1="0.5" x2="1" y2="0.5" id="Sjddhlzm36l"><stop offset="0%" stop-color="#ffffff"></stop><stop offset="100%" stop-color="#ffffff"></stop></linearGradient><linearGradient x1="0" y1="0.5" x2="1" y2="0.5" id="Sjddhlzm36o"><stop offset="0%" stop-color="#ffffff"></stop><stop offset="100%" stop-color="#ffffff"></stop></linearGradient><linearGradient x1="0" y1="0.5" x2="1" y2="0.5" id="Sjddhlzm36r"><stop offset="0%" stop-color="#ffffff"></stop><stop offset="100%" stop-color="#ffffff"></stop></linearGradient><linearGradient x1="0" y1="0.5" x2="1" y2="0.5" id="Sjddhlzm36u"><stop offset="0%" stop-color="#ffffff"></stop><stop offset="100%" stop-color="#ffffff"></stop></linearGradient><linearGradient x1="0" y1="0.5" x2="1" y2="0.5" id="Sjddhlzm36x"><stop offset="0%" stop-color="#b1b1b1"></stop><stop offset="100%" stop-color="#b1b1b1"></stop></linearGradient><linearGradient x1="0" y1="0.5" x2="1" y2="0.5" id="Sjddhlzm370"><stop offset="0%" stop-color="#b1b1b1"></stop><stop offset="100%" stop-color="#b1b1b1"></stop></linearGradient><linearGradient x1="0" y1="0.5" x2="1" y2="0.5" id="Sjddhlzm373"><stop offset="0%" stop-color="#ffffff"></stop><stop offset="100%" stop-color="#ffffff"></stop></linearGradient><linearGradient x1="0" y1="0.5" x2="1" y2="0.5" id="Sjddhlzm376"><stop offset="0%" stop-color="#ffffff"></stop><stop offset="100%" stop-color="#ffffff"></stop></linearGradient><linearGradient x1="0" y1="0.5" x2="1" y2="0.5" id="Sjddhlzm379"><stop offset="0%" stop-color="#ffffff"></stop><stop offset="100%" stop-color="#ffffff"></stop></linearGradient><linearGradient x1="0" y1="0.5" x2="1" y2="0.5" id="Sjddhlzm37o"><stop offset="0%" stop-color="#ffffff"></stop><stop offset="100%" stop-color="#ffffff"></stop></linearGradient><linearGradient x1="0" y1="0.5" x2="1" y2="0.5" id="Sjddhlzm37r"><stop offset="0%" stop-color="#26250d"></stop><stop offset="100%" stop-color="#26250d"></stop></linearGradient><linearGradient x1="0" y1="0.5" x2="1" y2="0.5" id="Sjddhlzm37u"><stop offset="0%" stop-color="#26250d"></stop><stop offset="100%" stop-color="#26250d"></stop></linearGradient><linearGradient x1="0" y1="0.5" x2="1" y2="0.5" id="Sjddhlzm381"><stop offset="0%" stop-color="#26250d"></stop><stop offset="100%" stop-color="#26250d"></stop></linearGradient><linearGradient x1="0" y1="0.5" x2="1" y2="0.5" id="Sjddhlzm386"><stop offset="0%" stop-color="#26250d"></stop><stop offset="100%" stop-color="#26250d"></stop></linearGradient><linearGradient x1="0" y1="0.5" x2="1" y2="0.5" id="Sjddhlzm389"><stop offset="0%" stop-color="#26250d"></stop><stop offset="100%" stop-color="#26250d"></stop></linearGradient><linearGradient x1="0" y1="0.5" x2="1" y2="0.5" id="Sjddhlzm38c"><stop offset="0%" stop-color="#26250d"></stop><stop offset="100%" stop-color="#26250d"></stop></linearGradient><linearGradient x1="0" y1="0.5" x2="1" y2="0.5" id="Sjddhlzm38f"><stop offset="0%" stop-color="#26250d"></stop><stop offset="100%" stop-color="#26250d"></stop></linearGradient><linearGradient x1="0" y1="0.5" x2="1" y2="0.5" id="Sjddhlzm38i"><stop offset="0%" stop-color="#26250d"></stop><stop offset="100%" stop-color="#26250d"></stop></linearGradient><linearGradient x1="0" y1="0.5" x2="1" y2="0.5" id="Sjddhlzm38l"><stop offset="0%" stop-color="#26250d"></stop><stop offset="100%" stop-color="#26250d"></stop></linearGradient><linearGradient x1="0" y1="0.5" x2="1" y2="0.5" id="Sjddhlzm38o"><stop offset="0%" stop-color="#26250d"></stop><stop offset="100%" stop-color="#26250d"></stop></linearGradient><linearGradient x1="0" y1="0.5" x2="1" y2="0.5" id="Sjddhlzm38r"><stop offset="0%" stop-color="#26250d"></stop><stop offset="100%" stop-color="#26250d"></stop></linearGradient><linearGradient x1="0" y1="0.5" x2="1" y2="0.5" id="Sjddhlzm38u"><stop offset="0%" stop-color="#26250d"></stop><stop offset="100%" stop-color="#26250d"></stop></linearGradient><linearGradient x1="0" y1="0.5" x2="1" y2="0.5" id="Sjddhlzm38x"><stop offset="0%" stop-color="#26250d"></stop><stop offset="100%" stop-color="#26250d"></stop></linearGradient><linearGradient x1="0" y1="0.5" x2="1" y2="0.5" id="Sjddhlzm390"><stop offset="0%" stop-color="#26250d"></stop><stop offset="100%" stop-color="#26250d"></stop></linearGradient><linearGradient x1="0" y1="0.5" x2="1" y2="0.5" id="Sjddhlzm393"><stop offset="0%" stop-color="#26250d"></stop><stop offset="100%" stop-color="#26250d"></stop></linearGradient><linearGradient x1="0" y1="0.5" x2="1" y2="0.5" id="Sjddhlzm396"><stop offset="0%" stop-color="#26250d"></stop><stop offset="100%" stop-color="#26250d"></stop></linearGradient><linearGradient x1="0" y1="0.5" x2="1" y2="0.5" id="Sjddhlzm399"><stop offset="0%" stop-color="#26250d"></stop><stop offset="100%" stop-color="#26250d"></stop></linearGradient><linearGradient x1="0" y1="0.5" x2="1" y2="0.5" id="Sjddhlzm39c"><stop offset="0%" stop-color="#26250d"></stop><stop offset="100%" stop-color="#26250d"></stop></linearGradient><linearGradient x1="0" y1="0.5" x2="1" y2="0.5" id="Sjddhlzm39f"><stop offset="0%" stop-color="#26250d"></stop><stop offset="100%" stop-color="#26250d"></stop></linearGradient><linearGradient x1="0" y1="0.5" x2="1" y2="0.5" id="Sjddhlzm39i"><stop offset="0%" stop-color="#26250d"></stop><stop offset="100%" stop-color="#26250d"></stop></linearGradient><linearGradient x1="0" y1="0.5" x2="1" y2="0.5" id="Sjddhlzm39l"><stop offset="0%" stop-color="#26250d"></stop><stop offset="100%" stop-color="#26250d"></stop></linearGradient><linearGradient x1="0" y1="0.5" x2="1" y2="0.5" id="Sjddhlzm39o"><stop offset="0%" stop-color="#26250d"></stop><stop offset="100%" stop-color="#26250d"></stop></linearGradient><linearGradient x1="0" y1="0.5" x2="1" y2="0.5" id="Sjddhlzm39r"><stop offset="0%" stop-color="#26250d"></stop><stop offset="100%" stop-color="#26250d"></stop></linearGradient><linearGradient x1="0" y1="0.5" x2="1" y2="0.5" id="Sjddhlzm39u"><stop offset="0%" stop-color="#26250d"></stop><stop offset="100%" stop-color="#26250d"></stop></linearGradient><linearGradient x1="0" y1="0.5" x2="1" y2="0.5" id="Sjddhlzm39x"><stop offset="0%" stop-color="#26250d"></stop><stop offset="100%" stop-color="#26250d"></stop></linearGradient><linearGradient x1="0" y1="0.5" x2="1" y2="0.5" id="Sjddhlzm3a0"><stop offset="0%" stop-color="#26250d"></stop><stop offset="100%" stop-color="#26250d"></stop></linearGradient><linearGradient x1="0" y1="0.5" x2="1" y2="0.5" id="Sjddhlzm3a3"><stop offset="0%" stop-color="#26250d"></stop><stop offset="100%" stop-color="#26250d"></stop></linearGradient><linearGradient x1="0" y1="0.5" x2="1" y2="0.5" id="Sjddhlzm3a6"><stop offset="0%" stop-color="#26250d"></stop><stop offset="100%" stop-color="#26250d"></stop></linearGradient><linearGradient x1="0" y1="0.5" x2="1" y2="0.5" id="Sjddhlzm3ab"><stop offset="0%" stop-color="#26250d"></stop><stop offset="100%" stop-color="#26250d"></stop></linearGradient><linearGradient x1="0" y1="0.5" x2="1" y2="0.5" id="Sjddhlzm3ae"><stop offset="0%" stop-color="#26250d"></stop><stop offset="100%" stop-color="#26250d"></stop></linearGradient><linearGradient x1="0" y1="0.5" x2="1" y2="0.5" id="Sjddhlzm3ah"><stop offset="0%" stop-color="#706c14"></stop><stop offset="100%" stop-color="#706c14"></stop></linearGradient><linearGradient x1="0" y1="0.5" x2="1" y2="0.5" id="Sjddhlzm3ak"><stop offset="0%" stop-color="#b1b1b1"></stop><stop offset="100%" stop-color="#b1b1b1"></stop></linearGradient><linearGradient x1="0" y1="0.5" x2="1" y2="0.5" id="Sjddhlzm3an"><stop offset="0%" stop-color="#ffffff"></stop><stop offset="100%" stop-color="#ffffff"></stop></linearGradient><linearGradient x1="0" y1="0.5" x2="1" y2="0.5" id="Sjddhlzm3aq"><stop offset="0%" stop-color="#26250d"></stop><stop offset="100%" stop-color="#26250d"></stop></linearGradient><linearGradient x1="0" y1="0.5" x2="1" y2="0.5" id="Sjddhlzm3at"><stop offset="0%" stop-color="#706c14"></stop><stop offset="100%" stop-color="#706c14"></stop></linearGradient><linearGradient x1="0" y1="0.5" x2="1" y2="0.5" id="Sjddhlzm3aw"><stop offset="0%" stop-color="#b1b1b1"></stop><stop offset="100%" stop-color="#b1b1b1"></stop></linearGradient><linearGradient x1="0" y1="0.5" x2="1" y2="0.5" id="Sjddhlzm3az"><stop offset="0%" stop-color="#ffffff"></stop><stop offset="100%" stop-color="#ffffff"></stop></linearGradient><linearGradient x1="0" y1="0.5" x2="1" y2="0.5" id="Sjddhlzm3b2"><stop offset="0%" stop-color="#ffffff"></stop><stop offset="100%" stop-color="#ffffff"></stop></linearGradient><linearGradient x1="0" y1="0.5" x2="1" y2="0.5" id="Sjddhlzm3b5"><stop offset="0%" stop-color="#ffffff"></stop><stop offset="100%" stop-color="#ffffff"></stop></linearGradient><linearGradient x1="0" y1="0.5" x2="1" y2="0.5" id="Sjddhlzm3b8"><stop offset="0%" stop-color="#ffffff"></stop><stop offset="100%" stop-color="#ffffff"></stop></linearGradient><linearGradient x1="0" y1="0.5" x2="1" y2="0.5" id="Sjddhlzm3bb"><stop offset="0%" stop-color="#ffffff"></stop><stop offset="100%" stop-color="#ffffff"></stop></linearGradient><linearGradient x1="0" y1="0.5" x2="1" y2="0.5" id="Sjddhlzm3be"><stop offset="0%" stop-color="#b1b1b1"></stop><stop offset="100%" stop-color="#b1b1b1"></stop></linearGradient><linearGradient x1="0" y1="0.5" x2="1" y2="0.5" id="Sjddhlzm3bh"><stop offset="0%" stop-color="#ffffff"></stop><stop offset="100%" stop-color="#ffffff"></stop></linearGradient><linearGradient x1="0" y1="0.5" x2="1" y2="0.5" id="Sjddhlzm3bk"><stop offset="0%" stop-color="#ffffff"></stop><stop offset="100%" stop-color="#ffffff"></stop></linearGradient><linearGradient x1="0" y1="0.5" x2="1" y2="0.5" id="Sjddhlzm3bn"><stop offset="0%" stop-color="#ffffff"></stop><stop offset="100%" stop-color="#ffffff"></stop></linearGradient></defs><g class="selector-part"></g><g class="selector-part"><rect x="0" y="0" width="1242" height="894" fill="rgba(255,255,255,0)" style="transition: 0.6s;"></rect></g><rect x="0" y="0" width="0" height="0" fill="rgba(168,202,236,0.5)" stroke="#3399ff" style="stroke-width: 1;"></rect><g class="selector-part" transform="matrix(1,0,0,1,398,428)"><rect x="0" y="0" width="808px" height="250px" fill="rgba(255,255,255,0)" style="cursor: move;"></rect></g><g class="svg-clip svg-visible" style="cursor: move; opacity: 1;" transform="matrix(5.3855,0,0,5.3855,496.4192,171.8158)"><rect x="0" y="0" width="99" height="71" fill="none" style="" class="svg-hitbox"></rect><svg width="99.55799999999999" height="71.28999999999999" viewBox="0.22100000000000009,14.355,99.55799999999999,71.28999999999999"><desc>Created with Snap</desc><defs></defs><g></g><g></g><g><polygon fill="url('#Sjddhlzm3aq')" points="7.303,44.994 12.501,43.615 16.457,41.093 27.062,37.309 28.267,35.302 39.445,31.461    41.394,29.283 41.451,25.615 38.442,19.355 44.375,23.436 52.01,32.089 52.751,29.521 58.165,29.193 55.813,31.996 57.503,32.083    59.151,30.123 66.737,30.814 61.968,34.555 63.104,35.398 67.527,31.964 68.769,32.18 74.957,33.712 69.873,35.935 66.299,38.092    67.332,39.077 70.663,37.085 75.747,34.862 82.648,37.538 73.499,40.71 70.459,42.43 71.634,43.978 74.444,42.257 83.685,39.395    87.055,41.684 89.78,46.156 84.541,44.259 76.594,46.859 74.572,47.911 75.991,49.695 77.453,49.116 85.278,46.729 89.761,48.482    92.559,53.838 86.62,51.286 78.777,53.121 80.593,55.069 87.041,53.522 92.223,56.235 94.779,62.336 87.798,57.942 84.36,58.653    88.719,62.208 93.813,64.602 86.367,80.643 54.174,80.645 49.841,70.386 39.311,58.944 45.39,58.12 49.624,56.566 51.914,50.121    48.776,55.414 44.863,56.732 37.813,57.177 29.842,53.547 25,54.25 19.633,59.006 15.313,58.984 10.683,57.435 14.45,54.735    17.03,54.679 19.381,52.271 13.998,51.854 8.431,55.481 6.024,53.073 5.221,49.691  "></polygon></g></svg></g><g class="svg-clip svg-visible" style="cursor: move; opacity: 1;" transform="matrix(2.7771,0,0,2.7771,663.535,311.414)"><rect x="0" y="0" width="99" height="71" fill="none" style="" class="svg-hitbox"></rect><svg width="99.55799999999999" height="71.28999999999999" viewBox="0.22100000000000009,14.355,99.55799999999999,71.28999999999999"><desc>Created with Snap</desc><defs></defs><g></g><g></g><g><polygon fill="url('#Sjddhlzm3at')" points="7.303,44.994 12.501,43.615 16.457,41.093 27.062,37.309 28.267,35.302 39.445,31.461    41.394,29.283 41.451,25.615 38.442,19.355 44.375,23.436 52.01,32.089 52.751,29.521 58.165,29.193 55.813,31.996 57.503,32.083    59.151,30.123 66.737,30.814 61.968,34.555 63.104,35.398 67.527,31.964 68.769,32.18 74.957,33.712 69.873,35.935 66.299,38.092    67.332,39.077 70.663,37.085 75.747,34.862 82.648,37.538 73.499,40.71 70.459,42.43 71.634,43.978 74.444,42.257 83.685,39.395    87.055,41.684 89.78,46.156 84.541,44.259 76.594,46.859 74.572,47.911 75.991,49.695 77.453,49.116 85.278,46.729 89.761,48.482    92.559,53.838 86.62,51.286 78.777,53.121 80.593,55.069 87.041,53.522 92.223,56.235 94.779,62.336 87.798,57.942 84.36,58.653    88.719,62.208 93.813,64.602 86.367,80.643 54.174,80.645 49.841,70.386 39.311,58.944 45.39,58.12 49.624,56.566 51.914,50.121    48.776,55.414 44.863,56.732 37.813,57.177 29.842,53.547 25,54.25 19.633,59.006 15.313,58.984 10.683,57.435 14.45,54.735    17.03,54.679 19.381,52.271 13.998,51.854 8.431,55.481 6.024,53.073 5.221,49.691  "></polygon></g></svg></g><g class="svg-clip svg-visible" style="cursor: move; opacity: 1;" transform="matrix(4.4498,0,0,0.8541,391.1677,467.5721)"><rect x="0" y="0" width="186" height="186" fill="none" style="" class="svg-hitbox"></rect><svg width="186.769" height="186.769" viewBox="-5.013000000000005,-5,186.769,186.769" class="thumb"><desc>Created with Snap</desc><defs></defs><g></g><g></g><g><rect x="-0.013" y="0" width="176.769" height="176.769" fill="url('#Sjddhlzm3be')"></rect></g></svg></g><g class="svg-text svg-visible" style="pointer-events: fill; cursor: move; opacity: 1;" transform="matrix(1.2105,0,0,1.2105,802,433)"><path fill="none" d="M-50,151 C377.9921875,150 417.9921875,150 845.984375,151" style=""></path><text x="0" y="0" fill="url('#Sjddhlzm3bn')" style="font-size: 100px; font-family: Akronim; text-anchor: middle;" dy="129.35">Shipment tracking</text><rect x="0" y="0" width="0" height="0"></rect></g><g><rect x="391" y="467" width="0" height="0" fill="rgba(255,136,0,0.1)" stroke="#ff8800" style="stroke-width: 1;"></rect></g><g class="selector-part" transform="matrix(1,0,0,1,398,428)"><rect x="0" y="0" width="808px" height="250px" fill="none" stroke="#2390bb" style="stroke-width: 2;"></rect><g transform="matrix(0.5,0,0,0.5,0,0)"><svg version="1.1" id="Calque_1" xmlns="http://www.w3.org/2000/svg" xmlns:xlink="http://www.w3.org/1999/xlink" x="506.5" y="-71px" width="28.94px" height="30px" viewBox="0 -15 28.94 30" enable-background="new 0 -15 28.94 30" xml:space="preserve" style="cursor: pointer;">
<g>
	<path fill="rgba(0,0,0,0)" d="M23.355-9.979c-0.352-0.263-0.712-0.511-1.084-0.739L20.34-7.486c0.317,0.195,0.629,0.414,0.929,0.646
		L23.355-9.979z" style=""></path>
	<path fill="rgba(0,0,0,0)" d="M28.894,0.081L25.092-0.13c0.292,2.317-0.217,4.718-1.539,6.756l-0.037-0.021
		c-0.376,0.583-0.821,1.137-1.335,1.648c-3.808,3.809-9.902,3.942-13.871,0.396C8.282,8.623,8.255,8.602,8.227,8.576
		C8.143,8.498,8.059,8.421,7.976,8.339c-0.052-0.051-0.104-0.1-0.153-0.152C7.8,8.163,7.776,8.14,7.753,8.115
		c-0.084-0.091-0.167-0.18-0.25-0.271v0.002C4.312,4.293,4.087-0.98,6.821-4.782l4.123,4.124l3.401-14.306L0.037-11.566l4.102,4.098
		C-0.064-2.14,0.193,5.554,4.917,10.587l0,0c0.012,0.016,0.023,0.025,0.033,0.037c0.091,0.098,0.181,0.199,0.278,0.293
		c0.021,0.023,0.047,0.043,0.07,0.068c0.075,0.074,0.148,0.146,0.225,0.22c0.051,0.045,0.099,0.086,0.15,0.133
		c0.053,0.047,0.104,0.094,0.156,0.14c0.144,0.13,0.291,0.257,0.439,0.375c0.01,0.012,0.018,0.016,0.027,0.023
		c5.574,4.563,13.804,4.115,18.842-1.194C27.94,7.722,29.185,3.851,28.894,0.081z" style=""></path>
	<path fill="rgba(0,0,0,0)" d="M24.122-3.353l3.544-1.319c-0.426-0.932-0.962-1.826-1.611-2.662L22.88-5.276
		C23.373-4.675,23.79-4.027,24.122-3.353z" style=""></path>
</g>
<desc></desc><defs></defs><circle cx="14.5" cy="0" r="15" style="" fill="rgba(0,0,0,0)"></circle></svg></g><rect x="260.5" y="-21" width="0" height="21" fill="rgba(255,255,255,0)" stroke="#2390bb" style="stroke-width: 1; cursor: pointer;"></rect><circle cx="808" cy="250" r="7" fill="#ffffff" stroke="#2390bb" style="stroke-width: 2; cursor: se-resize;"></circle><circle cx="0" cy="250" r="7" fill="#ffffff" stroke="#2390bb" style="stroke-width: 2; cursor: sw-resize;"></circle><circle cx="808" cy="0" r="7" fill="#ffffff" stroke="#2390bb" style="stroke-width: 2; cursor: ne-resize;"></circle><circle cx="0" cy="0" r="7" fill="#ffffff" stroke="#2390bb" style="stroke-width: 2; cursor: nw-resize;"></circle><circle cx="404" cy="250" r="7" fill="#ffffff" stroke="#2390bb" style="stroke-width: 2; cursor: s-resize;"></circle><circle cx="404" cy="0" r="7" fill="#ffffff" stroke="#2390bb" style="stroke-width: 2; cursor: n-resize;"></circle><circle cx="0" cy="125" r="7" fill="#ffffff" stroke="#2390bb" style="stroke-width: 2; cursor: w-resize;"></circle><circle cx="808" cy="125" r="7" fill="#ffffff" stroke="#2390bb" style="stroke-width: 2; cursor: e-resize;"></circle><path stroke="#ff0000" fill="none" style="stroke-width: 3;"></path><line x1="0" x2="0" y1="0" y2="0" fill="rgba(255,255,255,0)" stroke="#2390bb" style="stroke-width: 1;"></line><line x1="0" x2="0" y1="0" y2="0" fill="rgba(255,255,255,0)" stroke="#2390bb" style="stroke-width: 1;"></line><circle cx="0" cy="0" r="0" fill="#ff0000" stroke="#2390bb" style="stroke-width: 2; cursor: pointer;"></circle><circle cx="0" cy="0" r="0" fill="#ffa500" stroke="#2390bb" style="stroke-width: 2; cursor: pointer;"></circle><circle cx="0" cy="0" r="0" fill="#ffa500" stroke="#2390bb" style="stroke-width: 2; cursor: pointer;"></circle><circle cx="0" cy="0" r="0" fill="#ff0000" stroke="#2390bb" style="stroke-width: 2; cursor: pointer;"></circle><g style="cursor: pointer; visibility: hidden; opacity: 0;" transform="matrix(1,0,0,1,-50,-15)"><rect x="0" y="0" width="30" height="30" fill="#2390bb" rx="5" ry="5" style=""></rect><rect x="6" y="6" width="18" height="4" style="" fill="#ffffff"></rect><rect x="6" y="13" width="18" height="4" fill="#ffffff" style=""></rect><rect x="6" y="20" width="18" height="4" fill="#ffffff" style=""></rect></g></g></svg>