<?xml version="1.0" encoding="iso-8859-1"?>
<!-- Generator: Adobe Illustrator 16.0.0, SVG Export Plug-In . SVG Version: 6.00 Build 0)  -->
<!DOCTYPE svg PUBLIC "-//W3C//DTD SVG 1.1//EN" "http://www.w3.org/Graphics/SVG/1.1/DTD/svg11.dtd">
<svg version="1.1" id="Capa_1" xmlns="http://www.w3.org/2000/svg" xmlns:xlink="http://www.w3.org/1999/xlink" x="0px" y="0px"
	 width="575.284px" height="575.284px" viewBox="0 0 575.284 575.284" style="enable-background:new 0 0 575.284 575.284;"
	 xml:space="preserve">
<g>
	<path d="M518.672,235.855l-65.141-15.961v-90.71c0-3.77-2.13-7.209-5.521-8.886L206.932,1.019c0,0-2.093-1.163-4.994-1.004
		c-2.901,0.159-5.165,1.812-5.165,1.812l-80.221,57.21c-2.607,1.86-4.162,4.872-4.162,8.079v122.767l-56.72,20.024
		c-3.965,1.396-6.622,5.153-6.622,9.352v267.444c0,3.623,1.983,6.952,5.153,8.703l143.575,78.679c0,0,1.799,0.942,3.403,1.126
		c2.925,0.33,4.896-0.551,4.896-0.551l313.785-119.524c3.844-1.469,6.377-5.165,6.377-9.277V245.488
		C526.225,240.922,523.091,236.932,518.672,235.855z M97.298,475.992c0,1.139-0.575,2.179-1.518,2.791
		c-0.539,0.343-1.163,0.526-1.787,0.526c-0.465,0-0.942-0.099-1.383-0.294l-35.019-16.047c-1.175-0.538-1.934-1.714-1.934-2.999
		v-53.488c0-1.028,0.478-2.008,1.298-2.632c0.82-0.624,1.885-0.82,2.888-0.551l35.019,9.719c1.444,0.404,2.423,1.714,2.423,3.194
		v59.78H97.298z M97.298,386.309c0,0.979-0.44,1.909-1.2,2.546c-0.587,0.49-1.334,0.759-2.105,0.759
		c-0.208,0-0.416-0.012-0.612-0.049l-35.019-6.585c-1.566-0.294-2.693-1.665-2.693-3.256v-53.488c0-0.869,0.355-1.727,0.979-2.338
		c0.624-0.625,1.481-0.943,2.35-0.955l35.019,0.257c1.812,0.013,3.28,1.493,3.28,3.305V386.309z M97.298,296.59
		c0,1.726-1.322,3.157-3.036,3.305l-35.031,2.889c-0.085,0-0.184,0.012-0.269,0.012c-0.82,0-1.628-0.306-2.24-0.869
		c-0.686-0.624-1.065-1.493-1.065-2.436v-53.477c0-1.505,1.016-2.815,2.46-3.207l35.031-9.205c0.979-0.257,2.044-0.049,2.852,0.587
		c0.808,0.625,1.285,1.591,1.285,2.62v59.78H97.298z M178.51,513.189c0,1.126-0.575,2.179-1.518,2.791
		c-0.539,0.343-1.163,0.526-1.787,0.526c-0.465,0-0.942-0.11-1.371-0.294l-52.889-24.223c-1.175-0.539-1.921-1.714-1.921-2.999
		v-64.909c0-1.027,0.477-2.007,1.31-2.631c0.82-0.625,1.885-0.82,2.889-0.551l52.889,14.688c1.432,0.392,2.423,1.701,2.423,3.194
		v74.407H178.51z M178.51,401.548c0,0.991-0.44,1.922-1.2,2.546c-0.6,0.502-1.346,0.759-2.117,0.759
		c-0.208,0-0.404-0.024-0.612-0.062l-52.889-9.938c-1.567-0.282-2.693-1.652-2.693-3.244v-64.713c0-0.869,0.343-1.726,0.967-2.338
		c0.625-0.624,1.505-0.954,2.35-0.954l52.889,0.208c1.824,0.012,3.292,1.48,3.292,3.316v74.42H178.51z M178.51,289.895
		c0,1.726-1.322,3.157-3.036,3.305l-52.889,4.345c-0.086,0.013-0.184,0.013-0.27,0.013c-0.833,0-1.628-0.306-2.24-0.869
		c-0.686-0.624-1.065-1.506-1.065-2.424v-64.908c0-1.506,1.016-2.803,2.46-3.195l52.889-13.905c0.992-0.257,2.044-0.049,2.852,0.588
		c0.808,0.624,1.285,1.591,1.285,2.619v74.432H178.51z M178.51,141.032c0,1.298-0.771,2.497-1.971,3.023l-36.83,16.316
		c-0.428,0.196-0.881,0.282-1.334,0.282c-0.637,0-1.261-0.184-1.812-0.526c-0.943-0.612-1.506-1.665-1.506-2.779V89.562
		c0-1.15,0.588-2.215,1.555-2.827l36.83-22.95c1.016-0.624,2.301-0.673,3.354-0.073c1.04,0.575,1.701,1.689,1.701,2.889v74.431
		H178.51z M397.974,135.487c0-1.114,0.551-2.154,1.48-2.766c0.918-0.625,2.105-0.723,3.134-0.27l29.168,12.607
		c1.224,0.526,2.008,1.713,2.008,3.035v50.857c0,1.028-0.502,1.995-1.311,2.631c-0.575,0.441-1.285,0.686-2.007,0.686
		c-0.281,0-0.575-0.037-0.856-0.123l-29.168-7.87c-1.457-0.392-2.437-1.701-2.437-3.195v-55.594H397.974z M397.974,244.521
		c0-0.991,0.428-1.909,1.175-2.546c0.759-0.624,1.738-0.881,2.729-0.722l29.168,5.325c1.579,0.281,2.729,1.665,2.729,3.256v50.882
		c0,0.905-0.379,1.774-1.053,2.387c-0.624,0.575-1.432,0.905-2.265,0.905c-0.049,0-0.122,0-0.195,0l-29.181-1.689
		c-1.75-0.098-3.108-1.542-3.108-3.292V244.521z M222.586,59.685c0-1.114,0.563-2.154,1.493-2.767
		c0.931-0.612,2.105-0.71,3.122-0.281l55.851,24.149c1.211,0.526,1.995,1.726,1.995,3.036v69.45c0,1.053-0.502,2.032-1.347,2.656
		c-0.575,0.428-1.261,0.661-1.958,0.661c-0.33,0-0.661-0.049-0.979-0.159l-55.851-17.148c-1.383-0.429-2.338-1.714-2.338-3.17
		V59.685H222.586z M222.586,212.538c0-0.979,0.441-1.91,1.188-2.534c0.747-0.637,1.75-0.881,2.717-0.722l55.851,10.184
		c1.579,0.282,2.717,1.652,2.717,3.256v69.45c0,0.906-0.379,1.787-1.041,2.411c-0.612,0.588-1.42,0.894-2.264,0.894
		c-0.062,0-0.123,0-0.196-0.012l-55.852-3.195c-1.75-0.109-3.121-1.555-3.121-3.305V212.538L222.586,212.538z M225.903,406.934
		c-0.795,0-1.579-0.294-2.179-0.809c-0.722-0.636-1.126-1.542-1.126-2.484v-76.427c0-1.823,1.469-3.305,3.292-3.316l55.852-0.282
		c0.869,0.024,1.726,0.331,2.35,0.955c0.624,0.624,0.979,1.469,0.979,2.338v69.449c0,1.665-1.236,3.072-2.876,3.293l-55.851,7.271
		C226.185,406.934,226.038,406.934,225.903,406.934z M352.013,509.798c0,1.371-0.857,2.595-2.13,3.085l-93.539,35.569
		c-0.379,0.146-0.771,0.208-1.175,0.208c-0.661,0-1.322-0.208-1.873-0.588c-0.894-0.624-1.432-1.64-1.432-2.729V436.187
		c0-1.591,1.126-2.949,2.68-3.256l93.526-18.029c0.979-0.195,1.982,0.073,2.754,0.71c0.759,0.624,1.199,1.555,1.199,2.546v91.641
		H352.013z M370.874,385.183c0,1.665-1.224,3.072-2.864,3.293l-39.327,5.116c-0.146,0.012-0.281,0.024-0.428,0.024
		c-0.784,0-1.579-0.281-2.179-0.808c-0.723-0.637-1.127-1.543-1.127-2.485v-63.647c0-1.824,1.457-3.305,3.306-3.317l39.303-0.208
		c0.954-0.013,1.726,0.343,2.362,0.967c0.624,0.624,0.954,1.457,0.954,2.338V385.183L370.874,385.183z M370.874,297.092
		c0,0.894-0.354,1.774-1.028,2.387c-0.624,0.587-1.432,0.905-2.276,0.905c-0.073,0-0.122,0-0.196,0l-39.327-2.265
		c-1.737-0.098-3.108-1.542-3.108-3.305v-63.611c0-0.979,0.429-1.91,1.199-2.534c0.747-0.637,1.751-0.894,2.705-0.722l39.327,7.172
		c1.579,0.282,2.705,1.652,2.705,3.256V297.092z M370.874,179.649c0,1.053-0.502,2.044-1.334,2.668
		c-0.575,0.416-1.273,0.649-1.958,0.649c-0.331,0-0.649-0.049-0.979-0.147L327.3,170.738c-1.383-0.428-2.338-1.713-2.338-3.17
		v-63.636c0-1.126,0.551-2.154,1.481-2.779c0.93-0.6,2.104-0.71,3.133-0.269l39.327,17.001c1.225,0.526,1.983,1.713,1.983,3.035
		v58.728H370.874z M446.909,473.715c0,1.37-0.832,2.606-2.13,3.097l-58.557,22.13c-0.379,0.146-0.771,0.22-1.162,0.22
		c-0.674,0-1.347-0.208-1.897-0.6c-0.881-0.611-1.432-1.628-1.432-2.717v-84.677c0-1.591,1.126-2.949,2.692-3.256l58.568-11.285
		c0.955-0.184,1.958,0.073,2.729,0.71c0.759,0.624,1.199,1.555,1.199,2.546v73.832H446.909z M452.638,254.472
		c0-0.979,0.428-1.897,1.199-2.534c0.734-0.636,1.75-0.881,2.705-0.722l22.521,4.113c1.555,0.293,2.705,1.652,2.705,3.256v44.872
		c0,0.906-0.355,1.787-1.028,2.387c-0.624,0.575-1.432,0.894-2.276,0.894c-0.073,0-0.122,0-0.196,0l-22.497-1.272
		c-1.774-0.11-3.133-1.555-3.133-3.305V254.472z M455.967,376.982c-0.808,0-1.579-0.281-2.203-0.819
		c-0.723-0.625-1.126-1.53-1.126-2.485l0.073-47.675c0-0.881,0.354-1.726,0.979-2.338c0.624-0.624,1.456-0.967,2.312-0.967h0.024
		l22.424,0.073c1.836,0,3.305,1.481,3.305,3.306v44.676c0,1.664-1.224,3.072-2.863,3.292l-22.522,2.926
		C456.224,376.97,456.113,376.982,455.967,376.982z M510.948,449.37c0,1.371-0.856,2.607-2.129,3.097l-40.087,15.239
		c-0.379,0.146-0.783,0.22-1.175,0.22c-0.673,0-1.334-0.195-1.885-0.587c-0.881-0.612-1.432-1.628-1.432-2.718v-69.34
		c0-1.591,1.126-2.949,2.68-3.256l40.087-7.723c0.979-0.196,1.982,0.073,2.754,0.697c0.746,0.637,1.199,1.566,1.199,2.546v61.824
		H510.948z M519.603,365.82c0,1.664-1.225,3.072-2.864,3.28l-17.858,2.325c-0.146,0.013-0.281,0.024-0.429,0.024
		c-0.783,0-1.578-0.294-2.179-0.808c-0.722-0.637-1.126-1.542-1.126-2.484v-42.363c0-1.823,1.481-3.305,3.293-3.316l17.883-0.099
		c0.856-0.049,1.726,0.343,2.338,0.968c0.624,0.624,0.979,1.456,0.979,2.338L519.603,365.82z M518.623,308.022
		c-0.624,0.588-1.432,0.906-2.276,0.906c-0.073,0-0.147,0-0.196-0.013l-17.907-1.016c-1.75-0.11-3.108-1.555-3.108-3.305V262.22
		c0-0.979,0.429-1.91,1.199-2.546c0.747-0.625,1.75-0.881,2.705-0.722l17.858,3.268c1.555,0.281,2.705,1.652,2.705,3.256
		l0.049,40.123C519.651,306.529,519.271,307.398,518.623,308.022z"/>
</g>
<g>
</g>
<g>
</g>
<g>
</g>
<g>
</g>
<g>
</g>
<g>
</g>
<g>
</g>
<g>
</g>
<g>
</g>
<g>
</g>
<g>
</g>
<g>
</g>
<g>
</g>
<g>
</g>
<g>
</g>
</svg>
