<?xml version="1.0" encoding="iso-8859-1"?>
<!-- Generator: Adobe Illustrator 16.0.0, SVG Export Plug-In . SVG Version: 6.00 Build 0)  -->
<!DOCTYPE svg PUBLIC "-//W3C//DTD SVG 1.1//EN" "http://www.w3.org/Graphics/SVG/1.1/DTD/svg11.dtd">
<svg version="1.1" id="Capa_1" xmlns="http://www.w3.org/2000/svg" xmlns:xlink="http://www.w3.org/1999/xlink" x="0px" y="0px"
	 width="575.268px" height="575.268px" viewBox="0 0 575.268 575.268" style="enable-background:new 0 0 575.268 575.268;"
	 xml:space="preserve">
<g>
	<g>
		<path d="M198.447,274.598c0.024,0,0.049,0,0.073,0l68.042-1.652c1.774-0.049,3.182-1.493,3.182-3.268V163.483
			c0-0.967-0.44-1.885-1.187-2.509c-0.759-0.624-1.738-0.869-2.693-0.698l-68.042,13.072c-1.542,0.294-2.644,1.641-2.644,3.207
			v94.762c0,0.869,0.355,1.726,0.979,2.326C196.783,274.255,197.603,274.598,198.447,274.598z"/>
		<path d="M112.645,276.667c0.024,0,0.049,0,0.073,0l48.042-1.175c1.763-0.037,3.183-1.481,3.183-3.268v-88.422
			c0-0.967-0.429-1.885-1.188-2.509c-0.747-0.624-1.738-0.869-2.693-0.698l-48.042,9.241c-1.53,0.294-2.644,1.641-2.644,3.207
			v80.355c0,0.869,0.355,1.726,0.979,2.326C110.968,276.336,111.788,276.667,112.645,276.667z"/>
		<path d="M49.486,278.197c0.024,0,0.049,0,0.074,0l35.716-0.869c1.774-0.037,3.182-1.481,3.182-3.256v-75.741
			c0-0.979-0.44-1.897-1.187-2.521c-0.759-0.625-1.738-0.869-2.693-0.686l-35.716,6.854c-1.53,0.293-2.644,1.64-2.644,3.207v69.744
			c0,0.881,0.355,1.726,0.992,2.326C47.822,277.866,48.642,278.197,49.486,278.197z"/>
		<path d="M197.811,400.878l68.042,13.574c0.22,0.037,0.428,0.062,0.636,0.062c0.747,0,1.481-0.257,2.069-0.747
			c0.759-0.624,1.199-1.542,1.199-2.521V305.063c0-1.763-1.395-3.207-3.158-3.268l-68.042-2.154
			c-0.869-0.024-1.738,0.293-2.375,0.905c-0.636,0.624-0.991,1.469-0.991,2.338v94.762
			C195.191,399.226,196.293,400.572,197.811,400.878z"/>
		<path d="M48.85,371.135l35.716,7.124c0.22,0.049,0.428,0.073,0.636,0.073c0.747,0,1.481-0.257,2.069-0.746
			c0.759-0.625,1.199-1.543,1.199-2.521v-75.754c0-1.763-1.395-3.207-3.158-3.268l-35.716-1.139
			c-0.881-0.024-1.738,0.306-2.375,0.918c-0.637,0.624-0.992,1.457-0.992,2.338v69.743C46.218,369.495,47.32,370.829,48.85,371.135z
			"/>
		<path d="M569.588,131.28c0,0-232.057-106.978-232.082-106.978c-1.236-0.563-2.607-0.881-4.064-0.881
			c-1.15,0-2.227,0.208-3.256,0.563c-0.023,0-323.637,116.524-323.637,116.524c-3.868,1.396-6.462,5.067-6.462,9.192L0,191.794
			c0,3.011,1.383,5.851,3.746,7.711c1.75,1.371,3.868,2.093,6.034,2.093c0.796,0,1.579-0.098,2.362-0.281l6.903-1.726L18.923,430.01
			c0,4.101,2.546,7.772,6.401,9.18l304.763,112.045c1.053,0.392,2.18,0.612,3.367,0.612c1.48,0,2.863-0.343,4.137-0.931
			l215.131-101.225c3.414-1.628,5.617-5.067,5.617-8.861V193.19l4.186,1.322c0.955,0.306,1.959,0.465,2.963,0.465
			c2.057,0,4.064-0.649,5.766-1.885c2.533-1.836,4.014-4.786,4.014-7.907v-45.031C575.279,136.348,573.053,132.871,569.588,131.28z
			 M323.662,528.04L163.943,469.3V301.71c0-1.763-1.396-3.207-3.158-3.269l-48.042-1.518c-0.881-0.024-1.738,0.294-2.375,0.918
			c-0.636,0.612-0.991,1.457-0.991,2.338v149.047l-70.882-26.06l0.134-228.435l285.033-70.735V528.04z M445.854,396.729
			c0,1.493-1.027,2.804-2.459,3.171l-52.217,13.341c-0.27,0.074-0.551,0.11-0.807,0.11c-0.723,0-1.408-0.244-2.008-0.697
			c-0.783-0.612-1.236-1.567-1.236-2.57V304.88c0-1.75,1.383-3.183,3.133-3.256l52.217-2.13c0.881-0.012,1.75,0.294,2.387,0.906
			c0.623,0.611,1.004,1.469,1.004,2.35v93.979H445.854z M445.854,271.44c0,0.881-0.354,1.738-1.002,2.338
			c-0.602,0.6-1.434,0.918-2.277,0.918c-0.025,0-0.074,0-0.098,0l-52.217-1.616c-1.773-0.062-3.158-1.506-3.158-3.268V164.622
			c0-1.003,0.453-1.946,1.236-2.57c0.797-0.612,1.824-0.832,2.803-0.6l52.217,12.852c1.457,0.355,2.484,1.665,2.484,3.17v93.967
			H445.854z M532.967,374.464c0,1.494-1.004,2.804-2.436,3.171l-32.705,8.359c-0.258,0.073-0.527,0.099-0.809,0.099
			c-0.723,0-1.408-0.233-1.982-0.686c-0.809-0.625-1.273-1.567-1.273-2.57V300.56c0-1.751,1.383-3.195,3.133-3.269l32.682-1.322
			c0.906-0.012,1.75,0.294,2.387,0.906c0.648,0.624,1.004,1.469,1.004,2.35V374.464z M532.967,273.411
			c0,0.881-0.355,1.738-0.98,2.337c-0.623,0.588-1.432,0.918-2.275,0.918c-0.049,0-0.074,0-0.123,0l-32.68-1.09
			c-1.775-0.061-3.158-1.505-3.158-3.268v-81.457c0-1.003,0.453-1.946,1.248-2.57c0.795-0.612,1.811-0.833,2.803-0.6l32.682,8.042
			c1.455,0.355,2.484,1.665,2.484,3.17V273.411L532.967,273.411z"/>
	</g>
</g>
<g>
</g>
<g>
</g>
<g>
</g>
<g>
</g>
<g>
</g>
<g>
</g>
<g>
</g>
<g>
</g>
<g>
</g>
<g>
</g>
<g>
</g>
<g>
</g>
<g>
</g>
<g>
</g>
<g>
</g>
</svg>
